Coordinates
version=1
nRows=6
nColumns=34
inDegrees=yes

Units are S.I. units (second, meters, Newtons, ...)
If the header above contains a line with 'inDegrees', this indicates whether rotational values are in degrees (yes) or radians (no).

endheader
time	pelvis_tilt	pelvis_list	pelvis_rotation	pelvis_tx	pelvis_ty	pelvis_tz	hip_flexion_r	hip_adduction_r	hip_rotation_r	knee_angle_r	ankle_angle_r	subtalar_angle_r	mtp_angle_r	hip_flexion_l	hip_adduction_l	hip_rotation_l	knee_angle_l	ankle_angle_l	subtalar_angle_l	mtp_angle_l	lumbar_extension	lumbar_bending	lumbar_rotation	arm_flex_r	arm_add_r	arm_rot_r	elbow_flex_r	pro_sup_r	arm_flex_l	arm_add_l	arm_rot_l	elbow_flex_l	pro_sup_l
      6.60000000	      0.95417551	     -5.65993942	    -67.83252243	      3.47174369	      1.12126920	      9.00382113	     12.18787287	     -4.12468722	     -8.65889488	     36.53487497	      9.42639323	     -9.33431493	      0.00000000	      7.41599837	      6.61724378	     13.13308424	     28.26763480	      3.28031807	      4.53266723	      0.00000000	    -11.53219487	      0.20027322	      2.14087673	     -6.00491049	    -15.26274769	     22.79873346	     83.63920731	    118.74587156	      7.43407133	     -9.46154102	     24.54601756	    105.72038974	    119.74817918
      6.61666670	      2.02531183	     -4.30661624	    -67.59145614	      3.47357361	      1.12053041	      9.00819643	     14.12658417	     -5.75933890	     -8.59942836	     38.66411670	      7.51591179	    -12.34324530	      0.00000000	      5.65964469	      8.00718189	     13.50336811	     22.90336721	      1.82209620	      4.46481830	      0.00000000	    -11.21347564	     -1.54838320	      1.73334858	     -6.21302448	    -15.00849565	     22.70395303	     83.29143510	    118.57393839	      8.08729830	     -9.65398068	     25.03152165	    106.84388391	    119.74817918
      6.63333330	      2.95147679	     -2.90451621	    -67.15840201	      3.47619592	      1.11998645	      9.01314154	     16.01086412	     -7.39786324	     -8.56463991	     40.69724457	      5.43119345	    -14.80451720	      0.00000000	      3.74633320	      9.05394426	     13.88739183	     16.98019915	      0.63416832	      5.06629820	      0.00000000	    -10.76617716	     -3.13576340	      0.50605574	     -6.26484493	    -14.14846676	     22.42998497	     83.12293611	    118.45227534	      8.22536868	     -9.86975155	     25.46585075	    107.42352954	    119.74817918
      6.65000000	      3.72709724	     -1.63506227	    -66.49828983	      3.47992641	      1.11972423	      9.01567977	     17.88222276	     -9.08510825	     -8.63091206	     42.68838968	      3.13782304	    -16.56724261	      0.00000000	      2.03383698	     10.03554602	     14.49748011	     11.36272214	     -0.61352194	      5.99789074	      0.00000000	    -10.40131090	     -4.20986523	     -0.79627134	     -5.88948675	    -13.75468503	     22.13219338	     83.10609040	    118.38056996	      8.41551617	     -9.52161373	     25.90492668	    106.61221715	    119.74817918
      6.66666670	      4.23486921	     -0.87080039	    -66.00269665	      3.48390350	      1.12001113	      9.01883970	     19.32731432	    -10.48226174	     -8.97769390	     44.70259021	      0.92322169	    -17.53996541	      0.00000000	      0.12665497	     10.57457626	     14.54351856	      6.33157769	     -1.85414929	      6.96359813	      0.00000000	    -10.05462136	     -4.51564722	     -2.07572011	     -5.43044811	    -13.66562518	     22.20124035	     83.03584217	    118.37537772	      8.60748243	     -8.87032831	     25.75674776	    105.24215063	    119.74817918
      6.68333330	      4.68004372	     -0.73291719	    -66.52981023	      3.48684228	      1.12096101	      9.02118647	     20.66935159	    -11.44222841	     -9.00169903	     46.62650602	     -3.68890604	    -19.68109388	      0.00000000	     -1.75054212	     11.07916995	     13.65165933	      2.46902286	     -2.52381157	      6.38681783	      0.00000000	    -10.45725106	     -4.50439129	     -2.34014018	     -3.96214304	    -13.85287082	     22.49647399	     82.25668937	    118.44324556	      8.92588467	     -7.95268808	     25.17423373	    103.60624044	    119.74817918
